<svg width="16" height="16" viewBox="0 0 16 16" fill="none" xmlns="http://www.w3.org/2000/svg">
<path d="M11.3538 8.35375L6.35378 13.3538C6.30733 13.4002 6.25218 13.4371 6.19148 13.4622C6.13079 13.4873 6.06573 13.5003 6.00003 13.5003C5.93434 13.5003 5.86928 13.4873 5.80859 13.4622C5.74789 13.4371 5.69274 13.4002 5.64628 13.3538C5.59983 13.3073 5.56298 13.2521 5.53784 13.1915C5.5127 13.1308 5.49976 13.0657 5.49976 13C5.49976 12.9343 5.5127 12.8693 5.53784 12.8086C5.56298 12.7479 5.59983 12.6927 5.64628 12.6463L10.2932 8L5.64628 3.35375C5.55246 3.25993 5.49976 3.13269 5.49976 3C5.49976 2.86732 5.55246 2.74007 5.64628 2.64625C5.7401 2.55243 5.86735 2.49973 6.00003 2.49973C6.13272 2.49973 6.25996 2.55243 6.35378 2.64625L11.3538 7.64625C11.4003 7.69269 11.4372 7.74783 11.4623 7.80853C11.4875 7.86923 11.5004 7.9343 11.5004 8C11.5004 8.06571 11.4875 8.13077 11.4623 8.19147C11.4372 8.25217 11.4003 8.30732 11.3538 8.35375Z" fill="#212B36"/>
</svg>
