<svg width="20" height="20" viewBox="0 0 20 20" fill="none" xmlns="http://www.w3.org/2000/svg">
<path d="M17.7586 5.73212L14.268 2.24071C14.1519 2.12461 14.0141 2.03251 13.8624 1.96967C13.7107 1.90684 13.5482 1.8745 13.384 1.8745C13.2198 1.8745 13.0572 1.90684 12.9056 1.96967C12.7539 2.03251 12.6161 2.12461 12.5 2.24071L2.86641 11.8751C2.74983 11.9907 2.65741 12.1284 2.59451 12.2801C2.5316 12.4318 2.49948 12.5945 2.50001 12.7587V16.2501C2.50001 16.5816 2.6317 16.8996 2.86612 17.134C3.10054 17.3684 3.41849 17.5001 3.75001 17.5001H7.24141C7.40563 17.5006 7.5683 17.4685 7.71999 17.4056C7.87168 17.3427 8.00935 17.2503 8.12501 17.1337L17.7586 7.50009C17.8747 7.38401 17.9668 7.2462 18.0296 7.09452C18.0925 6.94285 18.1248 6.78028 18.1248 6.6161C18.1248 6.45193 18.0925 6.28936 18.0296 6.13768C17.9668 5.98601 17.8747 5.8482 17.7586 5.73212ZM7.24141 16.2501H3.75001V12.7587L10.625 5.88368L14.1164 9.37509L7.24141 16.2501ZM15 8.49071L11.5086 5.00009L13.3836 3.12509L16.875 6.61571L15 8.49071Z" fill="#212B36"/>
</svg>
