<svg width="14" height="14" viewBox="0 0 14 14" fill="none" xmlns="http://www.w3.org/2000/svg">
<path d="M9.62495 12.6879C9.62495 12.804 9.57886 12.9152 9.49681 12.9973C9.41476 13.0793 9.30348 13.1254 9.18745 13.1254H4.81245C4.69642 13.1254 4.58514 13.0793 4.50309 12.9973C4.42104 12.9152 4.37495 12.804 4.37495 12.6879C4.37495 12.5719 4.42104 12.4606 4.50309 12.3786C4.58514 12.2965 4.69642 12.2504 4.81245 12.2504H9.18745C9.30348 12.2504 9.41476 12.2965 9.49681 12.3786C9.57886 12.4606 9.62495 12.5719 9.62495 12.6879ZM11.8124 5.68792C11.8143 6.41726 11.6496 7.13738 11.3307 7.79334C11.0119 8.4493 10.5474 9.02375 9.97276 9.47284C9.86531 9.55521 9.77811 9.66105 9.71783 9.78228C9.65754 9.9035 9.62578 10.0369 9.62495 10.1723V10.5004C9.62495 10.7325 9.53276 10.955 9.36867 11.1191C9.20457 11.2832 8.98201 11.3754 8.74995 11.3754H5.24995C5.01788 11.3754 4.79533 11.2832 4.63123 11.1191C4.46714 10.955 4.37495 10.7325 4.37495 10.5004V10.1723C4.37486 10.0385 4.3441 9.90656 4.28504 9.78654C4.22598 9.66652 4.14018 9.56163 4.03425 9.47995C3.46101 9.03351 2.99685 8.46251 2.67689 7.81018C2.35693 7.15786 2.18956 6.44129 2.18745 5.71472C2.17323 3.10831 4.27979 0.937764 6.88401 0.87542C7.52569 0.859957 8.16397 0.973012 8.7613 1.20793C9.35863 1.44285 9.90293 1.79488 10.3622 2.24331C10.8214 2.69174 11.1863 3.22751 11.4354 3.81908C11.6844 4.41064 11.8126 5.04606 11.8124 5.68792ZM9.05948 5.81589C9.01885 5.77521 8.9706 5.74294 8.91749 5.72093C8.86437 5.69891 8.80744 5.68758 8.74995 5.68758C8.69246 5.68758 8.63552 5.69891 8.58241 5.72093C8.5293 5.74294 8.48105 5.77521 8.44042 5.81589L6.99995 7.2569L5.55948 5.81589C5.47739 5.7338 5.36605 5.68768 5.24995 5.68768C5.13385 5.68768 5.02251 5.7338 4.94042 5.81589C4.85833 5.89798 4.81221 6.00932 4.81221 6.12542C4.81221 6.24152 4.85833 6.35286 4.94042 6.43495L6.56245 8.05644V10.0629C6.56245 10.179 6.60854 10.2902 6.69059 10.3723C6.77264 10.4543 6.88392 10.5004 6.99995 10.5004C7.11598 10.5004 7.22726 10.4543 7.30931 10.3723C7.39136 10.2902 7.43745 10.179 7.43745 10.0629V8.05644L9.05948 6.43495C9.10016 6.39432 9.13243 6.34607 9.15444 6.29296C9.17646 6.23985 9.18779 6.18291 9.18779 6.12542C9.18779 6.06793 9.17646 6.011 9.15444 5.95788C9.13243 5.90477 9.10016 5.85652 9.05948 5.81589Z" fill="#A26306"/>
</svg>
