<svg width="16" height="16" viewBox="0 0 16 16" fill="none" xmlns="http://www.w3.org/2000/svg">
<path d="M14.3538 13.6464L11.2244 10.5177C12.1314 9.42874 12.5837 8.03204 12.4872 6.61813C12.3906 5.20422 11.7527 3.88196 10.7061 2.92641C9.65951 1.97085 8.2848 1.45558 6.86796 1.48778C5.45113 1.51998 4.10125 2.09717 3.09913 3.09929C2.09702 4.1014 1.51983 5.45128 1.48763 6.86811C1.45543 8.28495 1.9707 9.65966 2.92625 10.7063C3.88181 11.7529 5.20407 12.3908 6.61798 12.4873C8.03189 12.5839 9.42859 12.1316 10.5175 11.2245L13.6463 14.3539C13.6927 14.4004 13.7479 14.4372 13.8086 14.4624C13.8693 14.4875 13.9343 14.5005 14 14.5005C14.0657 14.5005 14.1308 14.4875 14.1915 14.4624C14.2522 14.4372 14.3073 14.4004 14.3538 14.3539C14.4002 14.3075 14.4371 14.2523 14.4622 14.1916C14.4874 14.1309 14.5003 14.0659 14.5003 14.0002C14.5003 13.9345 14.4874 13.8694 14.4622 13.8087C14.4371 13.748 14.4002 13.6929 14.3538 13.6464ZM2.50002 7.00017C2.50002 6.11016 2.76394 5.24013 3.25841 4.50011C3.75287 3.76009 4.45568 3.18331 5.27795 2.84272C6.10021 2.50212 7.00501 2.41301 7.87793 2.58664C8.75084 2.76027 9.55266 3.18886 10.182 3.81819C10.8113 4.44753 11.2399 5.24935 11.4136 6.12227C11.5872 6.99518 11.4981 7.89998 11.1575 8.72225C10.8169 9.54452 10.2401 10.2473 9.50009 10.7418C8.76007 11.2363 7.89004 11.5002 7.00002 11.5002C5.80695 11.4988 4.66313 11.0243 3.8195 10.1807C2.97587 9.33707 2.50134 8.19324 2.50002 7.00017Z" fill="#637381"/>
</svg>
